<svg xmlns="http://www.w3.org/2000/svg" viewBox="0 0 304.41 285.84"><defs><style>.cls-1{fill:#4f518a}.cls-2{fill:#652d90}.cls-3{fill:#2e3192}.cls-4{fill:#92278f}.cls-5{fill:#704e8a}.cls-6{fill:#88ab33}.cls-7{fill:#01a650}.cls-8{fill:#8bc800}.cls-9{fill:#8b4b88}.cls-10{fill:#ed1d23}.cls-11{fill:#c37048}.cls-12{fill:#f26623}.cls-13{fill:#ccc433}.cls-14{fill:#fef200}.cls-15{fill:#c24448}.cls-16{fill:#ff9400}.cls-17{fill:#ffc500}.cls-18{fill:#cca933}.cls-19{fill:#349991}.cls-20{fill:#01a89c}.cls-21{fill:#339763}.cls-22{fill:#0054a6}.cls-23{fill:#326697}</style></defs><title>MMF-Logo</title><g id="Layer_1" data-name="Layer 1"><polygon points="179.2 174.37 168.74 171.57 165.94 182.02 186.85 202.92 179.2 174.37" class="cls-1"/><polygon points="164.31 188.11 155.03 222.75 158.54 235.84 195.67 235.84 189.67 213.47 164.31 188.11" class="cls-2"/><polygon points="185.28 176 194.57 210.64 210.95 227.02 229.51 194.86 219.93 185.28 185.28 176" class="cls-3"/><polygon points="114.74 213.47 108.74 235.84 145.87 235.84 149.38 222.75 140.09 188.11 114.74 213.47" class="cls-4"/><polygon points="152.21 212.21 159.85 183.65 152.21 176 144.56 183.65 152.21 212.21" class="cls-5"/><polygon points="165.94 103.82 168.74 114.27 179.19 111.47 186.85 82.92 165.94 103.82" class="cls-6"/><polygon points="219.93 100.56 229.51 90.98 210.94 58.82 194.57 75.19 185.28 109.84 219.93 100.56" class="cls-7"/><polygon points="189.67 72.37 195.67 50 158.54 50 155.03 63.09 164.31 97.73 189.67 72.37" class="cls-8"/><polygon points="138.47 182.02 135.66 171.57 125.22 174.37 117.56 202.92 138.47 182.02" class="cls-9"/><polygon points="84.48 185.28 74.9 194.86 93.46 227.02 109.84 210.64 119.13 176 84.48 185.28" class="cls-10"/><polygon points="110.78 211.18 110.78 211.18 110.78 211.19 110.78 211.18" class="cls-10"/><polygon points="111.47 150.57 119.13 142.92 111.47 135.27 82.92 142.92 111.47 150.57" class="cls-11"/><polygon points="72.38 145.74 50 151.74 68.56 183.9 81.66 180.39 107.02 155.03 72.38 145.74" class="cls-12"/><polygon points="125.22 111.47 135.66 114.27 138.47 103.82 117.56 82.92 125.22 111.47" class="cls-13"/><polygon points="140.09 97.73 149.38 63.09 145.87 50 108.74 50 114.74 72.38 140.09 97.73" class="cls-14"/><polygon points="140.64 99.76 140.64 99.76 140.64 99.76 140.64 99.76" class="cls-14"/><polygon points="152.21 109.84 159.85 102.19 152.21 73.64 144.56 102.19 152.21 109.84" class="cls-13"/><polygon points="120.76 169.91 123.56 159.46 113.11 156.66 92.2 177.56 120.76 169.91" class="cls-15"/><rect x="121.61" y="170.77" class="cls-15"/><polygon points="81.66 105.45 68.56 101.94 50 134.1 72.38 140.09 88.05 135.9 107.02 130.81 81.66 105.45" class="cls-16"/><polygon points="119.13 109.84 109.84 75.2 93.46 58.82 74.9 90.98 84.48 100.56 119.13 109.84" class="cls-17"/><polygon points="113.11 129.18 123.56 126.38 120.76 115.93 92.2 108.28 113.11 129.18" class="cls-18"/><polygon points="121.61 115.07 121.61 115.07 121.61 115.07 121.61 115.07" class="cls-18"/><polygon points="192.94 135.27 185.28 142.92 192.94 150.57 221.49 142.92 192.94 135.27" class="cls-19"/><polygon points="232.03 140.09 254.41 134.1 235.84 101.94 222.75 105.45 197.39 130.81 232.03 140.09" class="cls-20"/><polygon points="183.65 115.93 180.85 126.38 191.3 129.18 212.21 108.28 183.65 115.93" class="cls-21"/><polygon points="222.75 180.39 235.84 183.9 254.41 151.74 232.03 145.74 197.39 155.03 222.75 180.39" class="cls-22"/><polygon points="195.37 154.48 195.37 154.48 195.37 154.48 195.37 154.48" class="cls-22"/><polygon points="180.85 159.46 183.65 169.91 212.21 177.56 191.3 156.66 180.85 159.46" class="cls-23"/></g></svg>